<?xml version="1.0" encoding="UTF-8"?>
<svg width="400px" height="400px" viewBox="0 0 400 400" version="1.1" xmlns="http://www.w3.org/2000/svg" xmlns:xlink="http://www.w3.org/1999/xlink">
    <!-- Generator: Sketch 57 (83077) - https://sketch.com -->
    <title>icon-system-status</title>
    <desc>Created with Sketch.</desc>
    <defs>
        <linearGradient x1="50%" y1="0%" x2="50%" y2="100%" id="linearGradient-1">
            <stop stop-color="#F5FCFF" offset="0%"></stop>
            <stop stop-color="#E0F4FB" offset="100%"></stop>
        </linearGradient>
        <linearGradient x1="79.4996378%" y1="44.4229487%" x2="5.83005935%" y2="63.407934%" id="linearGradient-2">
            <stop stop-color="#2B7094" offset="0%"></stop>
            <stop stop-color="#2A516E" offset="100%"></stop>
        </linearGradient>
        <linearGradient x1="118.545404%" y1="-1.68672243%" x2="0%" y2="89.5061728%" id="linearGradient-3">
            <stop stop-color="#8FD8F4" offset="0%"></stop>
            <stop stop-color="#2184CB" offset="100%"></stop>
        </linearGradient>
    </defs>
    <g id="icon-system-status" stroke="none" stroke-width="1" fill="none" fill-rule="evenodd">
        <path d="M378.72095,233.99921 C378.72095,275.609393 403.478565,338.971867 354.67281,365.539706 C307.579229,398.691692 192.368677,379.44245 154.776692,379.44245 C76.4735321,379.44245 15,303.870907 15,223.83994 C15,143.809898 62.093303,88.5568956 186.339529,48.9879094 C235.436659,15.8354902 284.533789,6.21060834 328.62112,23.3215103 C362.012682,53.707165 395.753893,62.8905612 378.72095,233.99921 Z" id="Path" fill="url(#linearGradient-1)" fill-rule="nonzero"></path>
        <path d="M251.603216,133.437392 L251.785669,133.50416 C255.485671,133.874247 259.04936,136.24193 260.178886,139.735245 L260.259,139.999341 L276.306,196.547 L309.5,196.547841 C313.567673,196.547841 316.877667,201.523838 316.996686,205.625886 L317,205.852841 C317,209.995841 313.643,215.157841 309.5,215.157841 L309.5,215.157841 L270.5,215.157841 C270.001221,215.157841 269.513834,215.083023 269.042325,214.944173 C264.87086,215.114169 260.501418,212.602858 259.234515,208.65816 L259.159,208.408341 L247.892,168.704 L218.466,243.790341 C218.015949,244.937793 217.15454,245.912215 216.06479,246.675078 C215.11251,247.540559 214.015689,248.252153 212.899,248.725341 C209.157943,250.308888 203.113337,248.623377 201.359382,244.957993 L201.263,244.744341 L176.798,186.997 L165.222,210.259341 C163.579432,213.560502 158.39949,215.118736 154.666085,214.119032 C154.358674,214.191025 154.044439,214.235849 153.725187,214.250259 L153.5,214.255341 L114.5,214.255341 C110.357,214.255341 107,209.093341 107,204.950341 C107,200.882668 110.236037,195.832713 114.274813,195.650423 L114.5,195.645341 L152.127,195.645 L168.23,163.288341 C170.037282,159.656145 176.12695,158.13108 179.860387,159.804385 C182.843141,160.139749 185.841665,161.692448 186.992618,164.097689 L187.089,164.311341 L209.322,216.8 L240.299,137.764341 C241.782472,133.982077 247.735389,132.07981 251.603216,133.437392 Z" id="Combined-Shape" fill="url(#linearGradient-2)" fill-rule="nonzero"></path>
        <path d="M236.515235,320.33518 C241.105817,320.33518 244.825485,324.054848 244.825485,328.645429 C244.825485,329.214755 244.768272,329.770684 244.659282,330.307784 L286.376731,330.307479 C290.967313,330.307479 294.686981,334.027147 294.686981,338.617729 C294.686981,343.123299 291.103803,346.789914 286.63085,346.924169 L286.376731,346.927978 L136.792244,346.927978 C132.201662,346.927978 128.481994,343.20831 128.481994,338.617729 C128.481994,334.112158 132.065172,330.445543 136.538126,330.311288 L136.792244,330.307479 L178.509693,330.307784 C178.400703,329.770684 178.34349,329.214755 178.34349,328.645429 C178.34349,324.054848 182.063158,320.33518 186.65374,320.33518 L186.65374,320.33518 Z M95.2409972,81 L327.927978,81 C346.1001,81 360.870922,95.5891007 361.164521,113.691379 L361.168975,114.240997 L361.168975,280.445983 C361.168975,298.618105 346.579874,313.388927 328.477596,313.682526 L327.927978,313.686981 L95.2409972,313.686981 C77.0655845,313.686981 62.2979876,299.09788 62.0044532,280.995601 L62,280.445983 L62,114.240997 C62,96.0688753 76.5858428,81.2980534 94.6912817,81.0044542 L95.2409972,81 L327.927978,81 Z M318.913008,112 L104.709043,112.000717 C92.5778455,112.047782 90.050086,114.435614 90.0007439,125.891536 L90.0007591,269.108555 C90.050607,280.562626 92.5795993,282.949294 104.712756,282.995882 L105.083375,282.996585 L319.379799,282.99675 C334.470619,283.00701 334.007329,283.442986 333.996554,269.191491 L333.996383,126.241468 C333.996383,114.602853 331.590426,112.098418 319.655674,112.002896 L319.28734,112.000717 Z" id="Combined-Shape" fill="url(#linearGradient-3)" fill-rule="nonzero"></path>
    </g>
</svg>